<mxfile host="app.diagrams.net" agent="Mozilla/5.0 (Windows NT 10.0; Win64; x64) AppleWebKit/537.36 (KHTML, like Gecko) Chrome/137.0.0.0 Safari/537.36 Edg/137.0.0.0" version="27.1.1">
  <diagram name="Page-1" id="IsnRF9MQxjLIa4nvzqex">
    <mxGraphModel dx="4019" dy="3085" grid="1" gridSize="10" guides="1" tooltips="1" connect="1" arrows="1" fold="1" page="1" pageScale="1" pageWidth="827" pageHeight="1169" math="0" shadow="0">
      <root>
        <mxCell id="0" />
        <mxCell id="1" parent="0" />
        <mxCell id="XJ5NrFdGvT8CZlM8X5NF-69" style="edgeStyle=orthogonalEdgeStyle;rounded=0;orthogonalLoop=1;jettySize=auto;html=1;exitX=0.5;exitY=0;exitDx=0;exitDy=0;entryX=0.5;entryY=1;entryDx=0;entryDy=0;" parent="1" source="XJ5NrFdGvT8CZlM8X5NF-1" target="XJ5NrFdGvT8CZlM8X5NF-62" edge="1">
          <mxGeometry relative="1" as="geometry" />
        </mxCell>
        <mxCell id="XJ5NrFdGvT8CZlM8X5NF-156" value="Inherits" style="edgeLabel;html=1;align=center;verticalAlign=middle;resizable=0;points=[];" parent="XJ5NrFdGvT8CZlM8X5NF-69" vertex="1" connectable="0">
          <mxGeometry x="-0.6425" y="-2" relative="1" as="geometry">
            <mxPoint as="offset" />
          </mxGeometry>
        </mxCell>
        <mxCell id="XJ5NrFdGvT8CZlM8X5NF-1" value="BaseForm" style="swimlane;fontStyle=1;align=center;verticalAlign=top;childLayout=stackLayout;horizontal=1;startSize=26;horizontalStack=0;resizeParent=1;resizeParentMax=0;resizeLast=0;collapsible=1;marginBottom=0;whiteSpace=wrap;html=1;" parent="1" vertex="1">
          <mxGeometry x="408" y="208" width="210" height="90" as="geometry" />
        </mxCell>
        <mxCell id="XJ5NrFdGvT8CZlM8X5NF-2" value="- ribbonControl1: RibbonControl&lt;div&gt;- slidePanel1: SlidePanel&lt;div&gt;&lt;br&gt;&lt;/div&gt;&lt;/div&gt;&lt;div&gt;&lt;br&gt;&lt;/div&gt;" style="text;strokeColor=none;fillColor=none;align=left;verticalAlign=top;spacingLeft=4;spacingRight=4;overflow=hidden;rotatable=0;points=[[0,0.5],[1,0.5]];portConstraint=eastwest;whiteSpace=wrap;html=1;" parent="XJ5NrFdGvT8CZlM8X5NF-1" vertex="1">
          <mxGeometry y="26" width="210" height="34" as="geometry" />
        </mxCell>
        <mxCell id="XJ5NrFdGvT8CZlM8X5NF-3" value="" style="line;strokeWidth=1;fillColor=none;align=left;verticalAlign=middle;spacingTop=-1;spacingLeft=3;spacingRight=3;rotatable=0;labelPosition=right;points=[];portConstraint=eastwest;strokeColor=inherit;" parent="XJ5NrFdGvT8CZlM8X5NF-1" vertex="1">
          <mxGeometry y="60" width="210" height="8" as="geometry" />
        </mxCell>
        <mxCell id="XJ5NrFdGvT8CZlM8X5NF-4" value="- BaseForm_Load()&lt;div&gt;&lt;br&gt;&lt;/div&gt;" style="text;strokeColor=none;fillColor=none;align=left;verticalAlign=top;spacingLeft=4;spacingRight=4;overflow=hidden;rotatable=0;points=[[0,0.5],[1,0.5]];portConstraint=eastwest;whiteSpace=wrap;html=1;" parent="XJ5NrFdGvT8CZlM8X5NF-1" vertex="1">
          <mxGeometry y="68" width="210" height="22" as="geometry" />
        </mxCell>
        <mxCell id="XJ5NrFdGvT8CZlM8X5NF-9" value="MainForm" style="swimlane;fontStyle=1;align=center;verticalAlign=top;childLayout=stackLayout;horizontal=1;startSize=26;horizontalStack=0;resizeParent=1;resizeParentMax=0;resizeLast=0;collapsible=1;marginBottom=0;whiteSpace=wrap;html=1;" parent="1" vertex="1">
          <mxGeometry x="170" y="528" width="200" height="190" as="geometry" />
        </mxCell>
        <mxCell id="XJ5NrFdGvT8CZlM8X5NF-10" value="- btnLogout: Button&lt;div&gt;- pbMembershipStatus: PictureBox&lt;div&gt;-&amp;nbsp;&lt;span style=&quot;background-color: transparent; color: light-dark(rgb(0, 0, 0), rgb(255, 255, 255));&quot;&gt;pbProfilePicture&lt;/span&gt;&lt;span style=&quot;background-color: transparent; color: light-dark(rgb(0, 0, 0), rgb(255, 255, 255));&quot;&gt;:&amp;nbsp;&lt;/span&gt;&lt;span style=&quot;background-color: transparent; color: light-dark(rgb(0, 0, 0), rgb(255, 255, 255));&quot;&gt;PictureBox&lt;/span&gt;&lt;/div&gt;&lt;div&gt;&lt;div&gt;- btnLogin:&amp;nbsp;&lt;span style=&quot;background-color: transparent; color: light-dark(rgb(0, 0, 0), rgb(255, 255, 255));&quot;&gt;Button&lt;/span&gt;&lt;/div&gt;&lt;div&gt;-&amp;nbsp;instance:&amp;nbsp;MainForm&amp;nbsp;&lt;br&gt;&lt;div&gt;&lt;div&gt;&lt;br&gt;&lt;/div&gt;&lt;/div&gt;&lt;/div&gt;&lt;/div&gt;&lt;/div&gt;&lt;div&gt;&lt;br&gt;&lt;/div&gt;&lt;div&gt;&lt;br&gt;&lt;/div&gt;" style="text;strokeColor=none;fillColor=none;align=left;verticalAlign=top;spacingLeft=4;spacingRight=4;overflow=hidden;rotatable=0;points=[[0,0.5],[1,0.5]];portConstraint=eastwest;whiteSpace=wrap;html=1;" parent="XJ5NrFdGvT8CZlM8X5NF-9" vertex="1">
          <mxGeometry y="26" width="200" height="84" as="geometry" />
        </mxCell>
        <mxCell id="XJ5NrFdGvT8CZlM8X5NF-11" value="" style="line;strokeWidth=1;fillColor=none;align=left;verticalAlign=middle;spacingTop=-1;spacingLeft=3;spacingRight=3;rotatable=0;labelPosition=right;points=[];portConstraint=eastwest;strokeColor=inherit;" parent="XJ5NrFdGvT8CZlM8X5NF-9" vertex="1">
          <mxGeometry y="110" width="200" height="8" as="geometry" />
        </mxCell>
        <mxCell id="XJ5NrFdGvT8CZlM8X5NF-12" value="- form1_Load()&lt;div&gt;+&amp;nbsp;GetInstance()&lt;/div&gt;&lt;div&gt;+&amp;nbsp;ReloadMainFormData()&lt;/div&gt;&lt;div&gt;&lt;br&gt;&lt;/div&gt;&lt;div&gt;&lt;br&gt;&lt;/div&gt;" style="text;strokeColor=none;fillColor=none;align=left;verticalAlign=top;spacingLeft=4;spacingRight=4;overflow=hidden;rotatable=0;points=[[0,0.5],[1,0.5]];portConstraint=eastwest;whiteSpace=wrap;html=1;" parent="XJ5NrFdGvT8CZlM8X5NF-9" vertex="1">
          <mxGeometry y="118" width="200" height="72" as="geometry" />
        </mxCell>
        <mxCell id="XJ5NrFdGvT8CZlM8X5NF-13" value="DashboardForm" style="swimlane;fontStyle=1;align=center;verticalAlign=top;childLayout=stackLayout;horizontal=1;startSize=26;horizontalStack=0;resizeParent=1;resizeParentMax=0;resizeLast=0;collapsible=1;marginBottom=0;whiteSpace=wrap;html=1;" parent="1" vertex="1">
          <mxGeometry x="400" y="528" width="200" height="180" as="geometry" />
        </mxCell>
        <mxCell id="XJ5NrFdGvT8CZlM8X5NF-14" value="- lblQuote: Label&lt;div&gt;- pbMembershipStatus: PictureBox&lt;div&gt;-&amp;nbsp;&lt;span style=&quot;background-color: transparent; color: light-dark(rgb(0, 0, 0), rgb(255, 255, 255));&quot;&gt;pbProfilePicture&lt;/span&gt;&lt;span style=&quot;background-color: transparent; color: light-dark(rgb(0, 0, 0), rgb(255, 255, 255));&quot;&gt;:&amp;nbsp;&lt;/span&gt;&lt;span style=&quot;background-color: transparent; color: light-dark(rgb(0, 0, 0), rgb(255, 255, 255));&quot;&gt;PictureBox&lt;/span&gt;&lt;/div&gt;&lt;div&gt;&lt;div&gt;- btnLogin:&amp;nbsp;&lt;span style=&quot;background-color: transparent; color: light-dark(rgb(0, 0, 0), rgb(255, 255, 255));&quot;&gt;Button&lt;/span&gt;&lt;/div&gt;&lt;div&gt;- btnLogout: Button&lt;/div&gt;&lt;div&gt;-&amp;nbsp;instance:&amp;nbsp;DashboardForm&amp;nbsp;&lt;br&gt;&lt;div&gt;&lt;div&gt;&lt;br&gt;&lt;/div&gt;&lt;/div&gt;&lt;/div&gt;&lt;/div&gt;&lt;/div&gt;&lt;div&gt;&lt;br&gt;&lt;/div&gt;&lt;div&gt;&lt;br&gt;&lt;/div&gt;" style="text;strokeColor=none;fillColor=none;align=left;verticalAlign=top;spacingLeft=4;spacingRight=4;overflow=hidden;rotatable=0;points=[[0,0.5],[1,0.5]];portConstraint=eastwest;whiteSpace=wrap;html=1;" parent="XJ5NrFdGvT8CZlM8X5NF-13" vertex="1">
          <mxGeometry y="26" width="200" height="94" as="geometry" />
        </mxCell>
        <mxCell id="XJ5NrFdGvT8CZlM8X5NF-15" value="" style="line;strokeWidth=1;fillColor=none;align=left;verticalAlign=middle;spacingTop=-1;spacingLeft=3;spacingRight=3;rotatable=0;labelPosition=right;points=[];portConstraint=eastwest;strokeColor=inherit;" parent="XJ5NrFdGvT8CZlM8X5NF-13" vertex="1">
          <mxGeometry y="120" width="200" height="8" as="geometry" />
        </mxCell>
        <mxCell id="XJ5NrFdGvT8CZlM8X5NF-16" value="- DashboardForm_Load()&lt;div&gt;+&amp;nbsp;GetInstance()&lt;/div&gt;&lt;div&gt;+&amp;nbsp;ReloadDashboardFormData()&lt;/div&gt;&lt;div&gt;&lt;br&gt;&lt;/div&gt;&lt;div&gt;&lt;br&gt;&lt;/div&gt;" style="text;strokeColor=none;fillColor=none;align=left;verticalAlign=top;spacingLeft=4;spacingRight=4;overflow=hidden;rotatable=0;points=[[0,0.5],[1,0.5]];portConstraint=eastwest;whiteSpace=wrap;html=1;" parent="XJ5NrFdGvT8CZlM8X5NF-13" vertex="1">
          <mxGeometry y="128" width="200" height="52" as="geometry" />
        </mxCell>
        <mxCell id="XJ5NrFdGvT8CZlM8X5NF-17" value="BMICalculatorForm" style="swimlane;fontStyle=1;align=center;verticalAlign=top;childLayout=stackLayout;horizontal=1;startSize=26;horizontalStack=0;resizeParent=1;resizeParentMax=0;resizeLast=0;collapsible=1;marginBottom=0;whiteSpace=wrap;html=1;" parent="1" vertex="1">
          <mxGeometry x="22" y="198" width="210" height="200" as="geometry" />
        </mxCell>
        <mxCell id="XJ5NrFdGvT8CZlM8X5NF-18" value="- txtHeight: TextBox&lt;div&gt;-&amp;nbsp;txtWeight:&amp;nbsp;TextBox&lt;/div&gt;&lt;div&gt;&lt;span style=&quot;background-color: transparent; color: light-dark(rgb(0, 0, 0), rgb(255, 255, 255));&quot;&gt;- pbMembershipStatus: PictureBox&lt;/span&gt;&lt;div&gt;&lt;div&gt;-&amp;nbsp;&lt;span style=&quot;background-color: transparent; color: light-dark(rgb(0, 0, 0), rgb(255, 255, 255));&quot;&gt;pbProfilePicture&lt;/span&gt;&lt;span style=&quot;background-color: transparent; color: light-dark(rgb(0, 0, 0), rgb(255, 255, 255));&quot;&gt;:&amp;nbsp;&lt;/span&gt;&lt;span style=&quot;background-color: transparent; color: light-dark(rgb(0, 0, 0), rgb(255, 255, 255));&quot;&gt;PictureBox&lt;/span&gt;&lt;/div&gt;&lt;div&gt;&lt;div&gt;- btnCalculate:&amp;nbsp;&lt;span style=&quot;background-color: transparent; color: light-dark(rgb(0, 0, 0), rgb(255, 255, 255));&quot;&gt;Button&lt;/span&gt;&lt;/div&gt;&lt;div&gt;-&amp;nbsp;instance:&amp;nbsp;BMICalculatorForm&lt;br&gt;&lt;div&gt;&lt;div&gt;&lt;br&gt;&lt;/div&gt;&lt;/div&gt;&lt;/div&gt;&lt;/div&gt;&lt;/div&gt;&lt;div&gt;&lt;br&gt;&lt;/div&gt;&lt;div&gt;&lt;br&gt;&lt;/div&gt;&lt;/div&gt;" style="text;strokeColor=none;fillColor=none;align=left;verticalAlign=top;spacingLeft=4;spacingRight=4;overflow=hidden;rotatable=0;points=[[0,0.5],[1,0.5]];portConstraint=eastwest;whiteSpace=wrap;html=1;" parent="XJ5NrFdGvT8CZlM8X5NF-17" vertex="1">
          <mxGeometry y="26" width="210" height="94" as="geometry" />
        </mxCell>
        <mxCell id="XJ5NrFdGvT8CZlM8X5NF-19" value="" style="line;strokeWidth=1;fillColor=none;align=left;verticalAlign=middle;spacingTop=-1;spacingLeft=3;spacingRight=3;rotatable=0;labelPosition=right;points=[];portConstraint=eastwest;strokeColor=inherit;" parent="XJ5NrFdGvT8CZlM8X5NF-17" vertex="1">
          <mxGeometry y="120" width="210" height="8" as="geometry" />
        </mxCell>
        <mxCell id="XJ5NrFdGvT8CZlM8X5NF-20" value="- BMICalculatorForm_Load()&lt;div&gt;+&amp;nbsp;GetInstance()&lt;/div&gt;&lt;div&gt;+&amp;nbsp;ReloadBMICalculatorFormData()&lt;/div&gt;&lt;div&gt;&lt;br&gt;&lt;/div&gt;&lt;div&gt;&lt;br&gt;&lt;/div&gt;" style="text;strokeColor=none;fillColor=none;align=left;verticalAlign=top;spacingLeft=4;spacingRight=4;overflow=hidden;rotatable=0;points=[[0,0.5],[1,0.5]];portConstraint=eastwest;whiteSpace=wrap;html=1;" parent="XJ5NrFdGvT8CZlM8X5NF-17" vertex="1">
          <mxGeometry y="128" width="210" height="72" as="geometry" />
        </mxCell>
        <mxCell id="XJ5NrFdGvT8CZlM8X5NF-102" style="edgeStyle=orthogonalEdgeStyle;rounded=0;orthogonalLoop=1;jettySize=auto;html=1;exitX=0.5;exitY=0;exitDx=0;exitDy=0;" parent="1" source="XJ5NrFdGvT8CZlM8X5NF-21" target="XJ5NrFdGvT8CZlM8X5NF-4" edge="1">
          <mxGeometry relative="1" as="geometry">
            <Array as="points">
              <mxPoint x="30" y="533" />
              <mxPoint x="30" y="428" />
              <mxPoint x="410" y="428" />
            </Array>
          </mxGeometry>
        </mxCell>
        <mxCell id="XJ5NrFdGvT8CZlM8X5NF-21" value="AboutForm" style="swimlane;fontStyle=1;align=center;verticalAlign=top;childLayout=stackLayout;horizontal=1;startSize=26;horizontalStack=0;resizeParent=1;resizeParentMax=0;resizeLast=0;collapsible=1;marginBottom=0;whiteSpace=wrap;html=1;" parent="1" vertex="1">
          <mxGeometry x="-70" y="533" width="210" height="170" as="geometry" />
        </mxCell>
        <mxCell id="XJ5NrFdGvT8CZlM8X5NF-22" value="&lt;div&gt;&lt;span style=&quot;background-color: transparent; color: light-dark(rgb(0, 0, 0), rgb(255, 255, 255));&quot;&gt;- pbMembershipStatus: PictureBox&lt;/span&gt;&lt;/div&gt;&lt;div&gt;&lt;div&gt;&lt;div&gt;-&amp;nbsp;&lt;span style=&quot;background-color: transparent; color: light-dark(rgb(0, 0, 0), rgb(255, 255, 255));&quot;&gt;pbProfilePicture&lt;/span&gt;&lt;span style=&quot;background-color: transparent; color: light-dark(rgb(0, 0, 0), rgb(255, 255, 255));&quot;&gt;:&amp;nbsp;&lt;/span&gt;&lt;span style=&quot;background-color: transparent; color: light-dark(rgb(0, 0, 0), rgb(255, 255, 255));&quot;&gt;PictureBox&lt;/span&gt;&lt;/div&gt;&lt;div&gt;&lt;div&gt;- btnCalculate:&amp;nbsp;&lt;span style=&quot;background-color: transparent; color: light-dark(rgb(0, 0, 0), rgb(255, 255, 255));&quot;&gt;Button&lt;/span&gt;&lt;/div&gt;&lt;div&gt;-&amp;nbsp;instance: AboutForm&lt;/div&gt;&lt;div&gt;-&amp;nbsp;lblVersion: Label&lt;br&gt;&lt;div&gt;&lt;div&gt;&lt;br&gt;&lt;/div&gt;&lt;/div&gt;&lt;/div&gt;&lt;/div&gt;&lt;/div&gt;&lt;div&gt;&lt;br&gt;&lt;/div&gt;&lt;div&gt;&lt;br&gt;&lt;/div&gt;&lt;/div&gt;" style="text;strokeColor=none;fillColor=none;align=left;verticalAlign=top;spacingLeft=4;spacingRight=4;overflow=hidden;rotatable=0;points=[[0,0.5],[1,0.5]];portConstraint=eastwest;whiteSpace=wrap;html=1;" parent="XJ5NrFdGvT8CZlM8X5NF-21" vertex="1">
          <mxGeometry y="26" width="210" height="84" as="geometry" />
        </mxCell>
        <mxCell id="XJ5NrFdGvT8CZlM8X5NF-23" value="" style="line;strokeWidth=1;fillColor=none;align=left;verticalAlign=middle;spacingTop=-1;spacingLeft=3;spacingRight=3;rotatable=0;labelPosition=right;points=[];portConstraint=eastwest;strokeColor=inherit;" parent="XJ5NrFdGvT8CZlM8X5NF-21" vertex="1">
          <mxGeometry y="110" width="210" height="8" as="geometry" />
        </mxCell>
        <mxCell id="XJ5NrFdGvT8CZlM8X5NF-24" value="-AboutForm_Load()&lt;div&gt;+&amp;nbsp;GetInstance()&lt;/div&gt;&lt;div&gt;+&amp;nbsp;ReloadAboutFormData()&lt;/div&gt;&lt;div&gt;&lt;br&gt;&lt;/div&gt;&lt;div&gt;&lt;br&gt;&lt;/div&gt;" style="text;strokeColor=none;fillColor=none;align=left;verticalAlign=top;spacingLeft=4;spacingRight=4;overflow=hidden;rotatable=0;points=[[0,0.5],[1,0.5]];portConstraint=eastwest;whiteSpace=wrap;html=1;" parent="XJ5NrFdGvT8CZlM8X5NF-21" vertex="1">
          <mxGeometry y="118" width="210" height="52" as="geometry" />
        </mxCell>
        <mxCell id="XJ5NrFdGvT8CZlM8X5NF-105" style="edgeStyle=orthogonalEdgeStyle;rounded=0;orthogonalLoop=1;jettySize=auto;html=1;exitX=0.5;exitY=0;exitDx=0;exitDy=0;" parent="1" source="XJ5NrFdGvT8CZlM8X5NF-25" target="XJ5NrFdGvT8CZlM8X5NF-4" edge="1">
          <mxGeometry relative="1" as="geometry">
            <Array as="points">
              <mxPoint x="780" y="448" />
              <mxPoint x="540" y="448" />
            </Array>
          </mxGeometry>
        </mxCell>
        <mxCell id="XJ5NrFdGvT8CZlM8X5NF-25" value="DietPlansForm" style="swimlane;fontStyle=1;align=center;verticalAlign=top;childLayout=stackLayout;horizontal=1;startSize=26;horizontalStack=0;resizeParent=1;resizeParentMax=0;resizeLast=0;collapsible=1;marginBottom=0;whiteSpace=wrap;html=1;" parent="1" vertex="1">
          <mxGeometry x="630" y="528" width="200" height="190" as="geometry" />
        </mxCell>
        <mxCell id="XJ5NrFdGvT8CZlM8X5NF-26" value="&lt;div&gt;&lt;span style=&quot;background-color: transparent; color: light-dark(rgb(0, 0, 0), rgb(255, 255, 255));&quot;&gt;- pbMembershipStatus: PictureBox&lt;/span&gt;&lt;/div&gt;&lt;div&gt;&lt;div&gt;&lt;div&gt;-&amp;nbsp;&lt;span style=&quot;background-color: transparent; color: light-dark(rgb(0, 0, 0), rgb(255, 255, 255));&quot;&gt;pbProfilePicture&lt;/span&gt;&lt;span style=&quot;background-color: transparent; color: light-dark(rgb(0, 0, 0), rgb(255, 255, 255));&quot;&gt;:&amp;nbsp;&lt;/span&gt;&lt;span style=&quot;background-color: transparent; color: light-dark(rgb(0, 0, 0), rgb(255, 255, 255));&quot;&gt;PictureBox&lt;/span&gt;&lt;/div&gt;&lt;div&gt;&lt;div&gt;- btnCalculate:&amp;nbsp;&lt;span style=&quot;background-color: transparent; color: light-dark(rgb(0, 0, 0), rgb(255, 255, 255));&quot;&gt;Button&lt;/span&gt;&lt;/div&gt;&lt;div&gt;-&amp;nbsp;instance:&amp;nbsp;DietPlansForm&lt;/div&gt;&lt;div&gt;-&amp;nbsp;lblNutritionInfo: Label&lt;/div&gt;&lt;div&gt;-&amp;nbsp;txtFoodItem: TextBox&lt;br&gt;&lt;div&gt;&lt;div&gt;&lt;br&gt;&lt;/div&gt;&lt;/div&gt;&lt;/div&gt;&lt;/div&gt;&lt;/div&gt;&lt;div&gt;&lt;br&gt;&lt;/div&gt;&lt;div&gt;&lt;br&gt;&lt;/div&gt;&lt;/div&gt;" style="text;strokeColor=none;fillColor=none;align=left;verticalAlign=top;spacingLeft=4;spacingRight=4;overflow=hidden;rotatable=0;points=[[0,0.5],[1,0.5]];portConstraint=eastwest;whiteSpace=wrap;html=1;" parent="XJ5NrFdGvT8CZlM8X5NF-25" vertex="1">
          <mxGeometry y="26" width="200" height="94" as="geometry" />
        </mxCell>
        <mxCell id="XJ5NrFdGvT8CZlM8X5NF-27" value="" style="line;strokeWidth=1;fillColor=none;align=left;verticalAlign=middle;spacingTop=-1;spacingLeft=3;spacingRight=3;rotatable=0;labelPosition=right;points=[];portConstraint=eastwest;strokeColor=inherit;" parent="XJ5NrFdGvT8CZlM8X5NF-25" vertex="1">
          <mxGeometry y="120" width="200" height="8" as="geometry" />
        </mxCell>
        <mxCell id="XJ5NrFdGvT8CZlM8X5NF-28" value="-DietPlansForm_Load()&lt;div&gt;+&amp;nbsp;GetInstance()&lt;/div&gt;&lt;div&gt;+ ReloadDietPlansFormData()&lt;/div&gt;&lt;div&gt;&lt;br&gt;&lt;/div&gt;&lt;div&gt;&lt;br&gt;&lt;/div&gt;" style="text;strokeColor=none;fillColor=none;align=left;verticalAlign=top;spacingLeft=4;spacingRight=4;overflow=hidden;rotatable=0;points=[[0,0.5],[1,0.5]];portConstraint=eastwest;whiteSpace=wrap;html=1;" parent="XJ5NrFdGvT8CZlM8X5NF-25" vertex="1">
          <mxGeometry y="128" width="200" height="62" as="geometry" />
        </mxCell>
        <mxCell id="XJ5NrFdGvT8CZlM8X5NF-106" style="edgeStyle=orthogonalEdgeStyle;rounded=0;orthogonalLoop=1;jettySize=auto;html=1;exitX=0.5;exitY=0;exitDx=0;exitDy=0;" parent="1" source="XJ5NrFdGvT8CZlM8X5NF-29" edge="1">
          <mxGeometry relative="1" as="geometry">
            <mxPoint x="580" y="302" as="targetPoint" />
            <mxPoint x="1040" y="532" as="sourcePoint" />
            <Array as="points">
              <mxPoint x="955" y="408" />
              <mxPoint x="580" y="408" />
            </Array>
          </mxGeometry>
        </mxCell>
        <mxCell id="XJ5NrFdGvT8CZlM8X5NF-29" value="WorkoutPlansForm" style="swimlane;fontStyle=1;align=center;verticalAlign=top;childLayout=stackLayout;horizontal=1;startSize=26;horizontalStack=0;resizeParent=1;resizeParentMax=0;resizeLast=0;collapsible=1;marginBottom=0;whiteSpace=wrap;html=1;" parent="1" vertex="1">
          <mxGeometry x="850" y="528" width="210" height="190" as="geometry" />
        </mxCell>
        <mxCell id="XJ5NrFdGvT8CZlM8X5NF-30" value="&lt;div&gt;&lt;span style=&quot;background-color: transparent; color: light-dark(rgb(0, 0, 0), rgb(255, 255, 255));&quot;&gt;- pbMembershipStatus: PictureBox&lt;/span&gt;&lt;/div&gt;&lt;div&gt;&lt;div&gt;&lt;div&gt;-&amp;nbsp;&lt;span style=&quot;background-color: transparent; color: light-dark(rgb(0, 0, 0), rgb(255, 255, 255));&quot;&gt;pbProfilePicture&lt;/span&gt;&lt;span style=&quot;background-color: transparent; color: light-dark(rgb(0, 0, 0), rgb(255, 255, 255));&quot;&gt;:&amp;nbsp;&lt;/span&gt;&lt;span style=&quot;background-color: transparent; color: light-dark(rgb(0, 0, 0), rgb(255, 255, 255));&quot;&gt;PictureBox&lt;/span&gt;&lt;/div&gt;&lt;div&gt;&lt;div&gt;- btnSaveWorkoutPlan:&amp;nbsp;&lt;span style=&quot;background-color: transparent; color: light-dark(rgb(0, 0, 0), rgb(255, 255, 255));&quot;&gt;Button&lt;/span&gt;&lt;/div&gt;&lt;div&gt;-&amp;nbsp;instance:&amp;nbsp;WorkoutPlansForm&lt;/div&gt;&lt;div&gt;-&amp;nbsp;lblExerciseInfo: Label&lt;/div&gt;&lt;div&gt;-&amp;nbsp;txtFoodItem: TextBox&lt;br&gt;&lt;div&gt;&lt;div&gt;&lt;br&gt;&lt;/div&gt;&lt;/div&gt;&lt;/div&gt;&lt;/div&gt;&lt;/div&gt;&lt;div&gt;&lt;br&gt;&lt;/div&gt;&lt;div&gt;&lt;br&gt;&lt;/div&gt;&lt;/div&gt;" style="text;strokeColor=none;fillColor=none;align=left;verticalAlign=top;spacingLeft=4;spacingRight=4;overflow=hidden;rotatable=0;points=[[0,0.5],[1,0.5]];portConstraint=eastwest;whiteSpace=wrap;html=1;" parent="XJ5NrFdGvT8CZlM8X5NF-29" vertex="1">
          <mxGeometry y="26" width="210" height="94" as="geometry" />
        </mxCell>
        <mxCell id="XJ5NrFdGvT8CZlM8X5NF-31" value="" style="line;strokeWidth=1;fillColor=none;align=left;verticalAlign=middle;spacingTop=-1;spacingLeft=3;spacingRight=3;rotatable=0;labelPosition=right;points=[];portConstraint=eastwest;strokeColor=inherit;" parent="XJ5NrFdGvT8CZlM8X5NF-29" vertex="1">
          <mxGeometry y="120" width="210" height="8" as="geometry" />
        </mxCell>
        <mxCell id="XJ5NrFdGvT8CZlM8X5NF-32" value="- WorkoutPlansForm_Load()&lt;div&gt;+&amp;nbsp;GetInstance()&lt;/div&gt;&lt;div&gt;+ ReloadWorkoutPlansFormData()&lt;/div&gt;&lt;div&gt;&lt;br&gt;&lt;/div&gt;&lt;div&gt;&lt;br&gt;&lt;/div&gt;" style="text;strokeColor=none;fillColor=none;align=left;verticalAlign=top;spacingLeft=4;spacingRight=4;overflow=hidden;rotatable=0;points=[[0,0.5],[1,0.5]];portConstraint=eastwest;whiteSpace=wrap;html=1;" parent="XJ5NrFdGvT8CZlM8X5NF-29" vertex="1">
          <mxGeometry y="128" width="210" height="62" as="geometry" />
        </mxCell>
        <mxCell id="XJ5NrFdGvT8CZlM8X5NF-46" value="ProfileForm" style="swimlane;fontStyle=1;align=center;verticalAlign=top;childLayout=stackLayout;horizontal=1;startSize=26;horizontalStack=0;resizeParent=1;resizeParentMax=0;resizeLast=0;collapsible=1;marginBottom=0;whiteSpace=wrap;html=1;" parent="1" vertex="1">
          <mxGeometry x="743" y="198" width="210" height="180" as="geometry" />
        </mxCell>
        <mxCell id="XJ5NrFdGvT8CZlM8X5NF-47" value="&lt;div&gt;&lt;span style=&quot;background-color: transparent; color: light-dark(rgb(0, 0, 0), rgb(255, 255, 255));&quot;&gt;- pbMembershipStatus: PictureBox&lt;/span&gt;&lt;/div&gt;&lt;div&gt;&lt;div&gt;&lt;div&gt;-&amp;nbsp;&lt;span style=&quot;background-color: transparent; color: light-dark(rgb(0, 0, 0), rgb(255, 255, 255));&quot;&gt;pbProfilePicture&lt;/span&gt;&lt;span style=&quot;background-color: transparent; color: light-dark(rgb(0, 0, 0), rgb(255, 255, 255));&quot;&gt;:&amp;nbsp;&lt;/span&gt;&lt;span style=&quot;background-color: transparent; color: light-dark(rgb(0, 0, 0), rgb(255, 255, 255));&quot;&gt;PictureBox&lt;/span&gt;&lt;/div&gt;&lt;div&gt;&lt;div&gt;- btnChangeProfilePicture:&amp;nbsp;&lt;span style=&quot;background-color: transparent; color: light-dark(rgb(0, 0, 0), rgb(255, 255, 255));&quot;&gt;Button&lt;/span&gt;&lt;/div&gt;&lt;div&gt;-&amp;nbsp;instance:&amp;nbsp;ProfileForm&lt;/div&gt;&lt;div&gt;-&amp;nbsp;lblUsername: Label&lt;/div&gt;&lt;/div&gt;&lt;/div&gt;&lt;div&gt;&lt;br&gt;&lt;/div&gt;&lt;div&gt;&lt;br&gt;&lt;/div&gt;&lt;/div&gt;" style="text;strokeColor=none;fillColor=none;align=left;verticalAlign=top;spacingLeft=4;spacingRight=4;overflow=hidden;rotatable=0;points=[[0,0.5],[1,0.5]];portConstraint=eastwest;whiteSpace=wrap;html=1;" parent="XJ5NrFdGvT8CZlM8X5NF-46" vertex="1">
          <mxGeometry y="26" width="210" height="84" as="geometry" />
        </mxCell>
        <mxCell id="XJ5NrFdGvT8CZlM8X5NF-48" value="" style="line;strokeWidth=1;fillColor=none;align=left;verticalAlign=middle;spacingTop=-1;spacingLeft=3;spacingRight=3;rotatable=0;labelPosition=right;points=[];portConstraint=eastwest;strokeColor=inherit;" parent="XJ5NrFdGvT8CZlM8X5NF-46" vertex="1">
          <mxGeometry y="110" width="210" height="8" as="geometry" />
        </mxCell>
        <mxCell id="XJ5NrFdGvT8CZlM8X5NF-49" value="-&amp;nbsp; ProfileForm_Load()&lt;div&gt;+&amp;nbsp;GetInstance()&lt;/div&gt;&lt;div&gt;+ ReloadProfileFormData()&lt;/div&gt;&lt;div&gt;&lt;br&gt;&lt;/div&gt;&lt;div&gt;&lt;br&gt;&lt;/div&gt;" style="text;strokeColor=none;fillColor=none;align=left;verticalAlign=top;spacingLeft=4;spacingRight=4;overflow=hidden;rotatable=0;points=[[0,0.5],[1,0.5]];portConstraint=eastwest;whiteSpace=wrap;html=1;" parent="XJ5NrFdGvT8CZlM8X5NF-46" vertex="1">
          <mxGeometry y="118" width="210" height="62" as="geometry" />
        </mxCell>
        <mxCell id="XJ5NrFdGvT8CZlM8X5NF-78" style="edgeStyle=orthogonalEdgeStyle;rounded=0;orthogonalLoop=1;jettySize=auto;html=1;exitX=0.5;exitY=0;exitDx=0;exitDy=0;entryX=1;entryY=0.25;entryDx=0;entryDy=0;" parent="1" source="XJ5NrFdGvT8CZlM8X5NF-50" target="XJ5NrFdGvT8CZlM8X5NF-62" edge="1">
          <mxGeometry relative="1" as="geometry" />
        </mxCell>
        <mxCell id="XJ5NrFdGvT8CZlM8X5NF-50" value="SignupForm" style="swimlane;fontStyle=1;align=center;verticalAlign=top;childLayout=stackLayout;horizontal=1;startSize=26;horizontalStack=0;resizeParent=1;resizeParentMax=0;resizeLast=0;collapsible=1;marginBottom=0;whiteSpace=wrap;html=1;" parent="1" vertex="1">
          <mxGeometry x="753" y="-59" width="200" height="176" as="geometry" />
        </mxCell>
        <mxCell id="XJ5NrFdGvT8CZlM8X5NF-51" value="&lt;div&gt;&lt;span style=&quot;background-color: transparent; color: light-dark(rgb(0, 0, 0), rgb(255, 255, 255));&quot;&gt;-&amp;nbsp;&lt;/span&gt;&lt;span style=&quot;background-color: transparent; color: light-dark(rgb(0, 0, 0), rgb(255, 255, 255));&quot;&gt;pbProfilePicture&lt;/span&gt;&lt;span style=&quot;background-color: transparent; color: light-dark(rgb(0, 0, 0), rgb(255, 255, 255));&quot;&gt;:&amp;nbsp;&lt;/span&gt;&lt;span style=&quot;background-color: transparent; color: light-dark(rgb(0, 0, 0), rgb(255, 255, 255));&quot;&gt;PictureBox&lt;/span&gt;&lt;/div&gt;&lt;div&gt;&lt;div&gt;&lt;div&gt;&lt;div&gt;- btnUploadProfilePicture:&amp;nbsp;&lt;span style=&quot;background-color: transparent; color: light-dark(rgb(0, 0, 0), rgb(255, 255, 255));&quot;&gt;Button&lt;/span&gt;&lt;/div&gt;&lt;div&gt;-&amp;nbsp;instance:&amp;nbsp;&lt;span style=&quot;text-align: center; background-color: transparent; color: light-dark(rgb(0, 0, 0), rgb(255, 255, 255));&quot;&gt;SignupForm&lt;/span&gt;&lt;/div&gt;&lt;div&gt;-&amp;nbsp;txtUsername: TextBox&lt;/div&gt;&lt;/div&gt;&lt;/div&gt;&lt;div&gt;&lt;div&gt;-&amp;nbsp;txtAge: TextBox&lt;/div&gt;&lt;div&gt;&lt;div&gt;&lt;span style=&quot;background-color: transparent; color: light-dark(rgb(0, 0, 0), rgb(255, 255, 255));&quot;&gt;-&amp;nbsp;txtPassword: TextBox&lt;/span&gt;&lt;/div&gt;&lt;div&gt;&lt;span style=&quot;background-color: transparent; color: light-dark(rgb(0, 0, 0), rgb(255, 255, 255));&quot;&gt;-&amp;nbsp;&amp;nbsp;&lt;/span&gt;&lt;span style=&quot;background-color: transparent;&quot;&gt;btnSignup: Button&lt;/span&gt;&lt;/div&gt;&lt;div&gt;&lt;div&gt;&lt;br&gt;&lt;/div&gt;&lt;/div&gt;&lt;/div&gt;&lt;/div&gt;&lt;div&gt;&lt;br&gt;&lt;/div&gt;&lt;div&gt;&lt;br&gt;&lt;/div&gt;&lt;div&gt;&lt;br&gt;&lt;/div&gt;&lt;/div&gt;" style="text;strokeColor=none;fillColor=none;align=left;verticalAlign=top;spacingLeft=4;spacingRight=4;overflow=hidden;rotatable=0;points=[[0,0.5],[1,0.5]];portConstraint=eastwest;whiteSpace=wrap;html=1;" parent="XJ5NrFdGvT8CZlM8X5NF-50" vertex="1">
          <mxGeometry y="26" width="200" height="100" as="geometry" />
        </mxCell>
        <mxCell id="XJ5NrFdGvT8CZlM8X5NF-52" value="" style="line;strokeWidth=1;fillColor=none;align=left;verticalAlign=middle;spacingTop=-1;spacingLeft=3;spacingRight=3;rotatable=0;labelPosition=right;points=[];portConstraint=eastwest;strokeColor=inherit;" parent="XJ5NrFdGvT8CZlM8X5NF-50" vertex="1">
          <mxGeometry y="126" width="200" height="8" as="geometry" />
        </mxCell>
        <mxCell id="XJ5NrFdGvT8CZlM8X5NF-53" value="-&amp;nbsp;&amp;nbsp;&lt;span style=&quot;text-align: center;&quot;&gt;SignupForm&lt;/span&gt;_Load()&lt;div&gt;+&amp;nbsp;GetInstance()&lt;/div&gt;&lt;div&gt;&lt;br&gt;&lt;/div&gt;&lt;div&gt;&lt;br&gt;&lt;/div&gt;" style="text;strokeColor=none;fillColor=none;align=left;verticalAlign=top;spacingLeft=4;spacingRight=4;overflow=hidden;rotatable=0;points=[[0,0.5],[1,0.5]];portConstraint=eastwest;whiteSpace=wrap;html=1;" parent="XJ5NrFdGvT8CZlM8X5NF-50" vertex="1">
          <mxGeometry y="134" width="200" height="42" as="geometry" />
        </mxCell>
        <mxCell id="XJ5NrFdGvT8CZlM8X5NF-72" style="edgeStyle=orthogonalEdgeStyle;rounded=0;orthogonalLoop=1;jettySize=auto;html=1;exitX=0.5;exitY=0;exitDx=0;exitDy=0;entryX=0;entryY=0.5;entryDx=0;entryDy=0;" parent="1" source="XJ5NrFdGvT8CZlM8X5NF-54" target="XJ5NrFdGvT8CZlM8X5NF-62" edge="1">
          <mxGeometry relative="1" as="geometry" />
        </mxCell>
        <mxCell id="XJ5NrFdGvT8CZlM8X5NF-54" value="LoginForm" style="swimlane;fontStyle=1;align=center;verticalAlign=top;childLayout=stackLayout;horizontal=1;startSize=26;horizontalStack=0;resizeParent=1;resizeParentMax=0;resizeLast=0;collapsible=1;marginBottom=0;whiteSpace=wrap;html=1;" parent="1" vertex="1">
          <mxGeometry x="30" y="-62" width="190" height="160" as="geometry" />
        </mxCell>
        <mxCell id="XJ5NrFdGvT8CZlM8X5NF-55" value="&lt;div&gt;&lt;span style=&quot;background-color: transparent; color: light-dark(rgb(0, 0, 0), rgb(255, 255, 255));&quot;&gt;- btnUploadProfilePicture:&amp;nbsp;&lt;/span&gt;&lt;span style=&quot;background-color: transparent; color: light-dark(rgb(0, 0, 0), rgb(255, 255, 255));&quot;&gt;Button&lt;/span&gt;&lt;/div&gt;&lt;div&gt;&lt;div&gt;&lt;div&gt;&lt;span style=&quot;text-align: center; background-color: transparent; color: light-dark(rgb(0, 0, 0), rgb(255, 255, 255));&quot;&gt;-&amp;nbsp;instance:&amp;nbsp;&lt;/span&gt;&lt;span style=&quot;text-align: center; background-color: transparent; color: light-dark(rgb(0, 0, 0), rgb(255, 255, 255));&quot;&gt;LoginForm&lt;/span&gt;&lt;/div&gt;&lt;div&gt;-&amp;nbsp;txtUsername: TextBox&lt;br&gt;&lt;/div&gt;&lt;/div&gt;&lt;div&gt;&lt;div&gt;&lt;span style=&quot;background-color: transparent; color: light-dark(rgb(0, 0, 0), rgb(255, 255, 255));&quot;&gt;-&amp;nbsp;txtPassword: TextBox&lt;/span&gt;&lt;/div&gt;&lt;div&gt;&lt;div&gt;&lt;span style=&quot;background-color: transparent; color: light-dark(rgb(0, 0, 0), rgb(255, 255, 255));&quot;&gt;-&amp;nbsp;&amp;nbsp;&lt;/span&gt;&lt;span style=&quot;background-color: transparent;&quot;&gt;btnLogin: Button&lt;/span&gt;&lt;/div&gt;&lt;div&gt;&lt;div&gt;&lt;br&gt;&lt;/div&gt;&lt;/div&gt;&lt;/div&gt;&lt;/div&gt;&lt;div&gt;&lt;br&gt;&lt;/div&gt;&lt;div&gt;&lt;br&gt;&lt;/div&gt;&lt;div&gt;&lt;br&gt;&lt;/div&gt;&lt;/div&gt;" style="text;strokeColor=none;fillColor=none;align=left;verticalAlign=top;spacingLeft=4;spacingRight=4;overflow=hidden;rotatable=0;points=[[0,0.5],[1,0.5]];portConstraint=eastwest;whiteSpace=wrap;html=1;" parent="XJ5NrFdGvT8CZlM8X5NF-54" vertex="1">
          <mxGeometry y="26" width="190" height="84" as="geometry" />
        </mxCell>
        <mxCell id="XJ5NrFdGvT8CZlM8X5NF-56" value="" style="line;strokeWidth=1;fillColor=none;align=left;verticalAlign=middle;spacingTop=-1;spacingLeft=3;spacingRight=3;rotatable=0;labelPosition=right;points=[];portConstraint=eastwest;strokeColor=inherit;" parent="XJ5NrFdGvT8CZlM8X5NF-54" vertex="1">
          <mxGeometry y="110" width="190" height="8" as="geometry" />
        </mxCell>
        <mxCell id="XJ5NrFdGvT8CZlM8X5NF-57" value="-&amp;nbsp;&amp;nbsp;LoginForm_Load()&lt;div&gt;+&amp;nbsp;GetInstance()&lt;/div&gt;&lt;div&gt;&lt;br&gt;&lt;/div&gt;&lt;div&gt;&lt;br&gt;&lt;/div&gt;" style="text;strokeColor=none;fillColor=none;align=left;verticalAlign=top;spacingLeft=4;spacingRight=4;overflow=hidden;rotatable=0;points=[[0,0.5],[1,0.5]];portConstraint=eastwest;whiteSpace=wrap;html=1;" parent="XJ5NrFdGvT8CZlM8X5NF-54" vertex="1">
          <mxGeometry y="118" width="190" height="42" as="geometry" />
        </mxCell>
        <mxCell id="XJ5NrFdGvT8CZlM8X5NF-79" style="edgeStyle=orthogonalEdgeStyle;rounded=0;orthogonalLoop=1;jettySize=auto;html=1;exitX=0.25;exitY=0;exitDx=0;exitDy=0;entryX=0.75;entryY=1;entryDx=0;entryDy=0;" parent="1" source="XJ5NrFdGvT8CZlM8X5NF-58" target="XJ5NrFdGvT8CZlM8X5NF-62" edge="1">
          <mxGeometry relative="1" as="geometry">
            <Array as="points">
              <mxPoint x="651" y="-97" />
              <mxPoint x="560" y="-97" />
            </Array>
          </mxGeometry>
        </mxCell>
        <mxCell id="XJ5NrFdGvT8CZlM8X5NF-58" value="PaymentForm" style="swimlane;fontStyle=1;align=center;verticalAlign=top;childLayout=stackLayout;horizontal=1;startSize=26;horizontalStack=0;resizeParent=1;resizeParentMax=0;resizeLast=0;collapsible=1;marginBottom=0;whiteSpace=wrap;html=1;" parent="1" vertex="1">
          <mxGeometry x="553" y="-48" width="172" height="138" as="geometry" />
        </mxCell>
        <mxCell id="XJ5NrFdGvT8CZlM8X5NF-59" value="&lt;div&gt;&lt;span style=&quot;background-color: transparent; color: light-dark(rgb(0, 0, 0), rgb(255, 255, 255)); text-align: center;&quot;&gt;-&amp;nbsp;instance:&amp;nbsp;&lt;/span&gt;&lt;span style=&quot;background-color: transparent; color: light-dark(rgb(0, 0, 0), rgb(255, 255, 255));&quot;&gt;PaymentForm&lt;/span&gt;&lt;/div&gt;&lt;div&gt;&lt;div&gt;&lt;div&gt;-&amp;nbsp;txtEmail: TextBox&lt;br&gt;&lt;/div&gt;&lt;/div&gt;&lt;div&gt;&lt;div&gt;&lt;span style=&quot;background-color: transparent; color: light-dark(rgb(0, 0, 0), rgb(255, 255, 255));&quot;&gt;-&amp;nbsp;txtOTP: TextBox&lt;/span&gt;&lt;/div&gt;&lt;div&gt;&lt;div&gt;&lt;span style=&quot;background-color: transparent; color: light-dark(rgb(0, 0, 0), rgb(255, 255, 255));&quot;&gt;-&amp;nbsp;&amp;nbsp;&lt;/span&gt;&lt;span style=&quot;background-color: transparent;&quot;&gt;btnActivatePremium: Button&lt;/span&gt;&lt;/div&gt;&lt;div&gt;&lt;div&gt;&lt;br&gt;&lt;/div&gt;&lt;/div&gt;&lt;/div&gt;&lt;/div&gt;&lt;div&gt;&lt;br&gt;&lt;/div&gt;&lt;div&gt;&lt;br&gt;&lt;/div&gt;&lt;div&gt;&lt;br&gt;&lt;/div&gt;&lt;/div&gt;" style="text;strokeColor=none;fillColor=none;align=left;verticalAlign=top;spacingLeft=4;spacingRight=4;overflow=hidden;rotatable=0;points=[[0,0.5],[1,0.5]];portConstraint=eastwest;whiteSpace=wrap;html=1;" parent="XJ5NrFdGvT8CZlM8X5NF-58" vertex="1">
          <mxGeometry y="26" width="172" height="64" as="geometry" />
        </mxCell>
        <mxCell id="XJ5NrFdGvT8CZlM8X5NF-60" value="" style="line;strokeWidth=1;fillColor=none;align=left;verticalAlign=middle;spacingTop=-1;spacingLeft=3;spacingRight=3;rotatable=0;labelPosition=right;points=[];portConstraint=eastwest;strokeColor=inherit;" parent="XJ5NrFdGvT8CZlM8X5NF-58" vertex="1">
          <mxGeometry y="90" width="172" height="8" as="geometry" />
        </mxCell>
        <mxCell id="XJ5NrFdGvT8CZlM8X5NF-61" value="-&amp;nbsp; PaymentForm_Load()&lt;div&gt;+&amp;nbsp;GetInstance()&lt;/div&gt;&lt;div&gt;&lt;br&gt;&lt;/div&gt;&lt;div&gt;&lt;br&gt;&lt;/div&gt;" style="text;strokeColor=none;fillColor=none;align=left;verticalAlign=top;spacingLeft=4;spacingRight=4;overflow=hidden;rotatable=0;points=[[0,0.5],[1,0.5]];portConstraint=eastwest;whiteSpace=wrap;html=1;" parent="XJ5NrFdGvT8CZlM8X5NF-58" vertex="1">
          <mxGeometry y="98" width="172" height="40" as="geometry" />
        </mxCell>
        <mxCell id="XJ5NrFdGvT8CZlM8X5NF-62" value="&lt;font style=&quot;font-size: 14px;&quot;&gt;Form&lt;/font&gt;" style="swimlane;fontStyle=1;align=center;verticalAlign=top;childLayout=stackLayout;horizontal=1;startSize=30;horizontalStack=0;resizeParent=1;resizeParentMax=0;resizeLast=0;collapsible=1;marginBottom=0;whiteSpace=wrap;html=1;" parent="1" vertex="1">
          <mxGeometry x="418" y="-170" width="190" height="29" as="geometry" />
        </mxCell>
        <mxCell id="XJ5NrFdGvT8CZlM8X5NF-95" value="MembershipForm" style="swimlane;fontStyle=1;align=center;verticalAlign=top;childLayout=stackLayout;horizontal=1;startSize=26;horizontalStack=0;resizeParent=1;resizeParentMax=0;resizeLast=0;collapsible=1;marginBottom=0;whiteSpace=wrap;html=1;" parent="1" vertex="1">
          <mxGeometry x="270" y="-53" width="190" height="142" as="geometry" />
        </mxCell>
        <mxCell id="XJ5NrFdGvT8CZlM8X5NF-96" value="&lt;div&gt;&lt;span style=&quot;background-color: transparent; color: light-dark(rgb(0, 0, 0), rgb(255, 255, 255)); text-align: center;&quot;&gt;-&amp;nbsp;instance:&amp;nbsp;&lt;/span&gt;&lt;span style=&quot;background-color: transparent; color: light-dark(rgb(0, 0, 0), rgb(255, 255, 255));&quot;&gt;MembershipForm&lt;/span&gt;&lt;/div&gt;&lt;div&gt;&lt;div&gt;&lt;div&gt;&lt;span style=&quot;background-color: transparent; color: light-dark(rgb(0, 0, 0), rgb(255, 255, 255));&quot;&gt;-&amp;nbsp;&amp;nbsp;&lt;/span&gt;&lt;span style=&quot;background-color: transparent; color: light-dark(rgb(0, 0, 0), rgb(255, 255, 255));&quot;&gt;btnFreePlan: Button&lt;/span&gt;&lt;/div&gt;&lt;/div&gt;&lt;div&gt;&lt;div&gt;&lt;div&gt;&lt;span style=&quot;background-color: transparent; color: light-dark(rgb(0, 0, 0), rgb(255, 255, 255));&quot;&gt;-&amp;nbsp;&amp;nbsp;&lt;/span&gt;&lt;span style=&quot;background-color: transparent;&quot;&gt;btnPremiumPlan: Button&lt;/span&gt;&lt;/div&gt;&lt;div&gt;&lt;br&gt;&lt;/div&gt;&lt;/div&gt;&lt;/div&gt;&lt;/div&gt;" style="text;strokeColor=none;fillColor=none;align=left;verticalAlign=top;spacingLeft=4;spacingRight=4;overflow=hidden;rotatable=0;points=[[0,0.5],[1,0.5]];portConstraint=eastwest;whiteSpace=wrap;html=1;" parent="XJ5NrFdGvT8CZlM8X5NF-95" vertex="1">
          <mxGeometry y="26" width="190" height="54" as="geometry" />
        </mxCell>
        <mxCell id="XJ5NrFdGvT8CZlM8X5NF-97" value="" style="line;strokeWidth=1;fillColor=none;align=left;verticalAlign=middle;spacingTop=-1;spacingLeft=3;spacingRight=3;rotatable=0;labelPosition=right;points=[];portConstraint=eastwest;strokeColor=inherit;" parent="XJ5NrFdGvT8CZlM8X5NF-95" vertex="1">
          <mxGeometry y="80" width="190" height="20" as="geometry" />
        </mxCell>
        <mxCell id="XJ5NrFdGvT8CZlM8X5NF-98" value="-&amp;nbsp; MembershipForm_Load()&lt;div&gt;+&amp;nbsp;GetInstance()&lt;/div&gt;&lt;div&gt;&lt;br&gt;&lt;/div&gt;&lt;div&gt;&lt;br&gt;&lt;/div&gt;" style="text;strokeColor=none;fillColor=none;align=left;verticalAlign=top;spacingLeft=4;spacingRight=4;overflow=hidden;rotatable=0;points=[[0,0.5],[1,0.5]];portConstraint=eastwest;whiteSpace=wrap;html=1;" parent="XJ5NrFdGvT8CZlM8X5NF-95" vertex="1">
          <mxGeometry y="100" width="190" height="42" as="geometry" />
        </mxCell>
        <mxCell id="XJ5NrFdGvT8CZlM8X5NF-99" style="edgeStyle=orthogonalEdgeStyle;rounded=0;orthogonalLoop=1;jettySize=auto;html=1;exitX=0.5;exitY=0;exitDx=0;exitDy=0;entryX=0.138;entryY=1.041;entryDx=0;entryDy=0;entryPerimeter=0;" parent="1" source="XJ5NrFdGvT8CZlM8X5NF-95" target="XJ5NrFdGvT8CZlM8X5NF-62" edge="1">
          <mxGeometry relative="1" as="geometry" />
        </mxCell>
        <mxCell id="XJ5NrFdGvT8CZlM8X5NF-100" style="edgeStyle=orthogonalEdgeStyle;rounded=0;orthogonalLoop=1;jettySize=auto;html=1;exitX=0;exitY=0.5;exitDx=0;exitDy=0;entryX=1;entryY=0.5;entryDx=0;entryDy=0;" parent="1" source="XJ5NrFdGvT8CZlM8X5NF-47" target="XJ5NrFdGvT8CZlM8X5NF-2" edge="1">
          <mxGeometry relative="1" as="geometry">
            <Array as="points">
              <mxPoint x="618" y="256" />
            </Array>
          </mxGeometry>
        </mxCell>
        <mxCell id="XJ5NrFdGvT8CZlM8X5NF-101" style="edgeStyle=orthogonalEdgeStyle;rounded=0;orthogonalLoop=1;jettySize=auto;html=1;exitX=1;exitY=0.5;exitDx=0;exitDy=0;entryX=0.003;entryY=-0.255;entryDx=0;entryDy=0;entryPerimeter=0;" parent="1" source="XJ5NrFdGvT8CZlM8X5NF-18" target="XJ5NrFdGvT8CZlM8X5NF-4" edge="1">
          <mxGeometry relative="1" as="geometry" />
        </mxCell>
        <mxCell id="XJ5NrFdGvT8CZlM8X5NF-103" style="edgeStyle=orthogonalEdgeStyle;rounded=0;orthogonalLoop=1;jettySize=auto;html=1;exitX=0.5;exitY=0;exitDx=0;exitDy=0;entryX=0.163;entryY=1.185;entryDx=0;entryDy=0;entryPerimeter=0;" parent="1" source="XJ5NrFdGvT8CZlM8X5NF-9" target="XJ5NrFdGvT8CZlM8X5NF-4" edge="1">
          <mxGeometry relative="1" as="geometry">
            <Array as="points">
              <mxPoint x="230" y="468" />
              <mxPoint x="442" y="468" />
            </Array>
          </mxGeometry>
        </mxCell>
        <mxCell id="XJ5NrFdGvT8CZlM8X5NF-104" style="edgeStyle=orthogonalEdgeStyle;rounded=0;orthogonalLoop=1;jettySize=auto;html=1;exitX=0.5;exitY=0;exitDx=0;exitDy=0;entryX=0.465;entryY=1.089;entryDx=0;entryDy=0;entryPerimeter=0;" parent="1" source="XJ5NrFdGvT8CZlM8X5NF-13" target="XJ5NrFdGvT8CZlM8X5NF-4" edge="1">
          <mxGeometry relative="1" as="geometry">
            <Array as="points">
              <mxPoint x="506" y="348" />
              <mxPoint x="506" y="348" />
            </Array>
          </mxGeometry>
        </mxCell>
        <mxCell id="XJ5NrFdGvT8CZlM8X5NF-107" value="UserDataManager" style="swimlane;fontStyle=1;align=center;verticalAlign=top;childLayout=stackLayout;horizontal=1;startSize=26;horizontalStack=0;resizeParent=1;resizeParentMax=0;resizeLast=0;collapsible=1;marginBottom=0;whiteSpace=wrap;html=1;" parent="1" vertex="1">
          <mxGeometry x="390" y="830" width="210" height="160" as="geometry" />
        </mxCell>
        <mxCell id="XJ5NrFdGvT8CZlM8X5NF-108" value="&lt;div&gt;&lt;span style=&quot;background-color: transparent; color: light-dark(rgb(0, 0, 0), rgb(255, 255, 255));&quot;&gt;+ CurrentUser: User&lt;/span&gt;&lt;/div&gt;&lt;div&gt;&lt;div&gt;&lt;div&gt;&lt;span style=&quot;background-color: transparent;&quot;&gt;- connectionString&lt;font color=&quot;rgba(0, 0, 0, 0)&quot;&gt;:&amp;nbsp;&lt;/font&gt;&lt;/span&gt;&lt;span style=&quot;background-color: transparent;&quot;&gt;string&lt;/span&gt;&lt;/div&gt;&lt;div&gt;&lt;div&gt;&lt;div&gt;&lt;div&gt;&lt;br&gt;&lt;/div&gt;&lt;/div&gt;&lt;/div&gt;&lt;/div&gt;&lt;/div&gt;&lt;div&gt;&lt;br&gt;&lt;/div&gt;&lt;div&gt;&lt;br&gt;&lt;/div&gt;&lt;/div&gt;" style="text;strokeColor=none;fillColor=none;align=left;verticalAlign=top;spacingLeft=4;spacingRight=4;overflow=hidden;rotatable=0;points=[[0,0.5],[1,0.5]];portConstraint=eastwest;whiteSpace=wrap;html=1;" parent="XJ5NrFdGvT8CZlM8X5NF-107" vertex="1">
          <mxGeometry y="26" width="210" height="34" as="geometry" />
        </mxCell>
        <mxCell id="XJ5NrFdGvT8CZlM8X5NF-109" value="" style="line;strokeWidth=1;fillColor=none;align=left;verticalAlign=middle;spacingTop=-1;spacingLeft=3;spacingRight=3;rotatable=0;labelPosition=right;points=[];portConstraint=eastwest;strokeColor=inherit;" parent="XJ5NrFdGvT8CZlM8X5NF-107" vertex="1">
          <mxGeometry y="60" width="210" height="8" as="geometry" />
        </mxCell>
        <mxCell id="XJ5NrFdGvT8CZlM8X5NF-110" value="&lt;div&gt;+ SignUpUser()&lt;/div&gt;&lt;div&gt;+&amp;nbsp;IsValidLogin()&lt;/div&gt;&lt;div&gt;+&amp;nbsp;GetUserDetails()&lt;/div&gt;&lt;div&gt;+VerifyLicenseKey()&lt;/div&gt;&lt;div&gt;+&amp;nbsp;IsValidLogin()&lt;/div&gt;&lt;div&gt;+&amp;nbsp;DeleteAccount()&lt;/div&gt;&lt;div&gt;&lt;br&gt;&lt;/div&gt;" style="text;strokeColor=none;fillColor=none;align=left;verticalAlign=top;spacingLeft=4;spacingRight=4;overflow=hidden;rotatable=0;points=[[0,0.5],[1,0.5]];portConstraint=eastwest;whiteSpace=wrap;html=1;" parent="XJ5NrFdGvT8CZlM8X5NF-107" vertex="1">
          <mxGeometry y="68" width="210" height="92" as="geometry" />
        </mxCell>
        <mxCell id="XJ5NrFdGvT8CZlM8X5NF-111" value="User" style="swimlane;fontStyle=1;align=center;verticalAlign=top;childLayout=stackLayout;horizontal=1;startSize=26;horizontalStack=0;resizeParent=1;resizeParentMax=0;resizeLast=0;collapsible=1;marginBottom=0;whiteSpace=wrap;html=1;" parent="1" vertex="1">
          <mxGeometry x="842" y="800" width="210" height="250" as="geometry" />
        </mxCell>
        <mxCell id="XJ5NrFdGvT8CZlM8X5NF-112" value="&lt;div&gt;&lt;span style=&quot;background-color: transparent;&quot;&gt;&lt;font color=&quot;rgba(0, 0, 0, 0)&quot;&gt;+ &lt;/font&gt;UserID&lt;font color=&quot;rgba(0, 0, 0, 0)&quot;&gt;: int&lt;/font&gt;&lt;/span&gt;&lt;/div&gt;&lt;div&gt;+&amp;nbsp;Username: string&lt;/div&gt;&lt;div&gt;+ Password: string&lt;/div&gt;&lt;div&gt;+ Age: int&lt;/div&gt;&lt;div&gt;+&amp;nbsp;Gender: string&lt;/div&gt;&lt;div&gt;+ Height: double&lt;/div&gt;&lt;div&gt;+ Weight: double&lt;/div&gt;&lt;div&gt;+&amp;nbsp;StartingWeight: double&lt;/div&gt;&lt;div&gt;&lt;/div&gt;+ BMI: double&lt;div&gt;&lt;div&gt;+ TargetWeightRange: string&lt;div&gt;+&amp;nbsp;ProfilePicture: byte[]&lt;/div&gt;&lt;/div&gt;&lt;div&gt;+&amp;nbsp;LicenseKey: string&lt;/div&gt;&lt;div&gt;+&amp;nbsp;DailyWaterIntake:&amp;nbsp;double&lt;span style=&quot;white-space: pre;&quot;&gt;&#x9;&lt;/span&gt;&lt;/div&gt;&lt;div&gt;&lt;br&gt;&lt;/div&gt;&lt;/div&gt;" style="text;strokeColor=none;fillColor=none;align=left;verticalAlign=top;spacingLeft=4;spacingRight=4;overflow=hidden;rotatable=0;points=[[0,0.5],[1,0.5]];portConstraint=eastwest;whiteSpace=wrap;html=1;" parent="XJ5NrFdGvT8CZlM8X5NF-111" vertex="1">
          <mxGeometry y="26" width="210" height="194" as="geometry" />
        </mxCell>
        <mxCell id="XJ5NrFdGvT8CZlM8X5NF-113" value="" style="line;strokeWidth=1;fillColor=none;align=left;verticalAlign=middle;spacingTop=-1;spacingLeft=3;spacingRight=3;rotatable=0;labelPosition=right;points=[];portConstraint=eastwest;strokeColor=inherit;" parent="XJ5NrFdGvT8CZlM8X5NF-111" vertex="1">
          <mxGeometry y="220" width="210" height="8" as="geometry" />
        </mxCell>
        <mxCell id="XJ5NrFdGvT8CZlM8X5NF-114" value="&lt;div&gt;+&amp;nbsp;User()&lt;/div&gt;" style="text;strokeColor=none;fillColor=none;align=left;verticalAlign=top;spacingLeft=4;spacingRight=4;overflow=hidden;rotatable=0;points=[[0,0.5],[1,0.5]];portConstraint=eastwest;whiteSpace=wrap;html=1;" parent="XJ5NrFdGvT8CZlM8X5NF-111" vertex="1">
          <mxGeometry y="228" width="210" height="22" as="geometry" />
        </mxCell>
        <mxCell id="XJ5NrFdGvT8CZlM8X5NF-115" value="DietPlan" style="swimlane;fontStyle=1;align=center;verticalAlign=top;childLayout=stackLayout;horizontal=1;startSize=26;horizontalStack=0;resizeParent=1;resizeParentMax=0;resizeLast=0;collapsible=1;marginBottom=0;whiteSpace=wrap;html=1;" parent="1" vertex="1">
          <mxGeometry x="610" y="1093" width="210" height="98" as="geometry" />
        </mxCell>
        <mxCell id="XJ5NrFdGvT8CZlM8X5NF-116" value="&lt;div&gt;&lt;span style=&quot;background-color: transparent;&quot;&gt;&lt;font color=&quot;rgba(0, 0, 0, 0)&quot;&gt;+ &lt;/font&gt;UserID&lt;font color=&quot;rgba(0, 0, 0, 0)&quot;&gt;: int&lt;/font&gt;&lt;/span&gt;&lt;/div&gt;&lt;div&gt;+&amp;nbsp;MealTime: string&lt;/div&gt;&lt;div&gt;+&amp;nbsp;FoodItem: string&lt;/div&gt;&lt;div&gt;+&amp;nbsp;Notes: string&lt;/div&gt;&lt;div&gt;&lt;br&gt;&lt;/div&gt;" style="text;strokeColor=none;fillColor=none;align=left;verticalAlign=top;spacingLeft=4;spacingRight=4;overflow=hidden;rotatable=0;points=[[0,0.5],[1,0.5]];portConstraint=eastwest;whiteSpace=wrap;html=1;" parent="XJ5NrFdGvT8CZlM8X5NF-115" vertex="1">
          <mxGeometry y="26" width="210" height="64" as="geometry" />
        </mxCell>
        <mxCell id="XJ5NrFdGvT8CZlM8X5NF-117" value="" style="line;strokeWidth=1;fillColor=none;align=left;verticalAlign=middle;spacingTop=-1;spacingLeft=3;spacingRight=3;rotatable=0;labelPosition=right;points=[];portConstraint=eastwest;strokeColor=inherit;" parent="XJ5NrFdGvT8CZlM8X5NF-115" vertex="1">
          <mxGeometry y="90" width="210" height="8" as="geometry" />
        </mxCell>
        <mxCell id="XJ5NrFdGvT8CZlM8X5NF-120" value="WorkoutPlan" style="swimlane;fontStyle=1;align=center;verticalAlign=top;childLayout=stackLayout;horizontal=1;startSize=26;horizontalStack=0;resizeParent=1;resizeParentMax=0;resizeLast=0;collapsible=1;marginBottom=0;whiteSpace=wrap;html=1;" parent="1" vertex="1">
          <mxGeometry x="319" y="1083" width="210" height="118" as="geometry" />
        </mxCell>
        <mxCell id="XJ5NrFdGvT8CZlM8X5NF-121" value="&lt;div&gt;&lt;span style=&quot;background-color: transparent;&quot;&gt;&lt;font color=&quot;rgba(0, 0, 0, 0)&quot;&gt;+ &lt;/font&gt;UserID&lt;font color=&quot;rgba(0, 0, 0, 0)&quot;&gt;: int&lt;/font&gt;&lt;/span&gt;&lt;/div&gt;&lt;div&gt;+&amp;nbsp;Day: string&lt;/div&gt;&lt;div&gt;+&amp;nbsp;Workout: string&lt;/div&gt;&lt;div&gt;+&amp;nbsp;Duration: string&lt;/div&gt;&lt;div&gt;+&amp;nbsp;Intensity: string&lt;/div&gt;&lt;div&gt;&lt;br&gt;&lt;/div&gt;" style="text;strokeColor=none;fillColor=none;align=left;verticalAlign=top;spacingLeft=4;spacingRight=4;overflow=hidden;rotatable=0;points=[[0,0.5],[1,0.5]];portConstraint=eastwest;whiteSpace=wrap;html=1;" parent="XJ5NrFdGvT8CZlM8X5NF-120" vertex="1">
          <mxGeometry y="26" width="210" height="84" as="geometry" />
        </mxCell>
        <mxCell id="XJ5NrFdGvT8CZlM8X5NF-122" value="" style="line;strokeWidth=1;fillColor=none;align=left;verticalAlign=middle;spacingTop=-1;spacingLeft=3;spacingRight=3;rotatable=0;labelPosition=right;points=[];portConstraint=eastwest;strokeColor=inherit;" parent="XJ5NrFdGvT8CZlM8X5NF-120" vertex="1">
          <mxGeometry y="110" width="210" height="8" as="geometry" />
        </mxCell>
        <mxCell id="XJ5NrFdGvT8CZlM8X5NF-128" value="LoginFormClass" style="swimlane;fontStyle=1;align=center;verticalAlign=top;childLayout=stackLayout;horizontal=1;startSize=26;horizontalStack=0;resizeParent=1;resizeParentMax=0;resizeLast=0;collapsible=1;marginBottom=0;whiteSpace=wrap;html=1;" parent="1" vertex="1">
          <mxGeometry x="-62" y="860" width="210" height="70" as="geometry" />
        </mxCell>
        <mxCell id="XJ5NrFdGvT8CZlM8X5NF-130" value="" style="line;strokeWidth=1;fillColor=none;align=left;verticalAlign=middle;spacingTop=-1;spacingLeft=3;spacingRight=3;rotatable=0;labelPosition=right;points=[];portConstraint=eastwest;strokeColor=inherit;" parent="XJ5NrFdGvT8CZlM8X5NF-128" vertex="1">
          <mxGeometry y="26" width="210" height="8" as="geometry" />
        </mxCell>
        <mxCell id="XJ5NrFdGvT8CZlM8X5NF-131" value="+ CheckPassword()&lt;div&gt;+&amp;nbsp;LoginNow()&lt;/div&gt;" style="text;strokeColor=none;fillColor=none;align=left;verticalAlign=top;spacingLeft=4;spacingRight=4;overflow=hidden;rotatable=0;points=[[0,0.5],[1,0.5]];portConstraint=eastwest;whiteSpace=wrap;html=1;" parent="XJ5NrFdGvT8CZlM8X5NF-128" vertex="1">
          <mxGeometry y="34" width="210" height="36" as="geometry" />
        </mxCell>
        <mxCell id="XJ5NrFdGvT8CZlM8X5NF-132" style="edgeStyle=orthogonalEdgeStyle;rounded=0;orthogonalLoop=1;jettySize=auto;html=1;exitX=0.5;exitY=0;exitDx=0;exitDy=0;entryX=0.622;entryY=-0.011;entryDx=0;entryDy=0;entryPerimeter=0;" parent="1" source="XJ5NrFdGvT8CZlM8X5NF-107" target="XJ5NrFdGvT8CZlM8X5NF-107" edge="1">
          <mxGeometry relative="1" as="geometry" />
        </mxCell>
        <mxCell id="XJ5NrFdGvT8CZlM8X5NF-136" value="" style="html=1;labelBackgroundColor=#ffffff;startArrow=none;startFill=0;startSize=6;endArrow=classic;endFill=1;endSize=6;jettySize=auto;orthogonalLoop=1;strokeWidth=1;dashed=1;fontSize=14;rounded=0;exitX=0;exitY=0.5;exitDx=0;exitDy=0;entryX=0;entryY=0.5;entryDx=0;entryDy=0;" parent="1" source="XJ5NrFdGvT8CZlM8X5NF-55" target="XJ5NrFdGvT8CZlM8X5NF-131" edge="1">
          <mxGeometry width="60" height="60" relative="1" as="geometry">
            <mxPoint x="-150" y="540" as="sourcePoint" />
            <mxPoint x="-90" y="480" as="targetPoint" />
            <Array as="points">
              <mxPoint x="-110" y="9" />
              <mxPoint x="-110" y="470" />
              <mxPoint x="-110" y="912" />
            </Array>
          </mxGeometry>
        </mxCell>
        <mxCell id="XJ5NrFdGvT8CZlM8X5NF-155" value="Uses" style="edgeLabel;html=1;align=center;verticalAlign=middle;resizable=0;points=[];" parent="XJ5NrFdGvT8CZlM8X5NF-136" vertex="1" connectable="0">
          <mxGeometry x="-0.0117" relative="1" as="geometry">
            <mxPoint as="offset" />
          </mxGeometry>
        </mxCell>
        <mxCell id="XJ5NrFdGvT8CZlM8X5NF-137" value="" style="html=1;labelBackgroundColor=#ffffff;startArrow=none;startFill=0;startSize=6;endArrow=classic;endFill=1;endSize=6;jettySize=auto;orthogonalLoop=1;strokeWidth=1;dashed=1;fontSize=14;rounded=0;exitX=1;exitY=0.5;exitDx=0;exitDy=0;entryX=-0.018;entryY=0.145;entryDx=0;entryDy=0;entryPerimeter=0;" parent="1" source="XJ5NrFdGvT8CZlM8X5NF-131" target="XJ5NrFdGvT8CZlM8X5NF-110" edge="1">
          <mxGeometry width="60" height="60" relative="1" as="geometry">
            <mxPoint x="370" y="640" as="sourcePoint" />
            <mxPoint x="430" y="580" as="targetPoint" />
          </mxGeometry>
        </mxCell>
        <mxCell id="XJ5NrFdGvT8CZlM8X5NF-154" value="Uses" style="edgeLabel;html=1;align=center;verticalAlign=middle;resizable=0;points=[];" parent="XJ5NrFdGvT8CZlM8X5NF-137" vertex="1" connectable="0">
          <mxGeometry x="-0.5417" y="-3" relative="1" as="geometry">
            <mxPoint as="offset" />
          </mxGeometry>
        </mxCell>
        <mxCell id="XJ5NrFdGvT8CZlM8X5NF-146" value="" style="html=1;labelBackgroundColor=#ffffff;startArrow=none;startFill=0;startSize=6;endArrow=classic;endFill=1;endSize=6;jettySize=auto;orthogonalLoop=1;strokeWidth=1;dashed=1;fontSize=14;rounded=0;entryX=0.072;entryY=0.972;entryDx=0;entryDy=0;entryPerimeter=0;" parent="1" target="XJ5NrFdGvT8CZlM8X5NF-110" edge="1">
          <mxGeometry width="60" height="60" relative="1" as="geometry">
            <mxPoint x="370" y="1080" as="sourcePoint" />
            <mxPoint x="430" y="1000" as="targetPoint" />
          </mxGeometry>
        </mxCell>
        <mxCell id="XJ5NrFdGvT8CZlM8X5NF-147" value="" style="html=1;labelBackgroundColor=#ffffff;startArrow=none;startFill=0;startSize=6;endArrow=classic;endFill=1;endSize=6;jettySize=auto;orthogonalLoop=1;strokeWidth=1;dashed=1;fontSize=14;rounded=0;entryX=1;entryY=0.5;entryDx=0;entryDy=0;" parent="1" target="XJ5NrFdGvT8CZlM8X5NF-110" edge="1">
          <mxGeometry width="60" height="60" relative="1" as="geometry">
            <mxPoint x="700" y="1090" as="sourcePoint" />
            <mxPoint x="430" y="1000" as="targetPoint" />
          </mxGeometry>
        </mxCell>
        <mxCell id="XJ5NrFdGvT8CZlM8X5NF-148" value="" style="html=1;labelBackgroundColor=#ffffff;startArrow=none;startFill=0;startSize=6;endArrow=classic;endFill=1;endSize=6;jettySize=auto;orthogonalLoop=1;strokeWidth=1;dashed=1;fontSize=14;rounded=0;entryX=0.989;entryY=0.249;entryDx=0;entryDy=0;exitX=0;exitY=0.5;exitDx=0;exitDy=0;entryPerimeter=0;" parent="1" source="XJ5NrFdGvT8CZlM8X5NF-112" target="XJ5NrFdGvT8CZlM8X5NF-110" edge="1">
          <mxGeometry width="60" height="60" relative="1" as="geometry">
            <mxPoint x="850" y="946" as="sourcePoint" />
            <mxPoint x="750" y="800" as="targetPoint" />
          </mxGeometry>
        </mxCell>
        <mxCell id="XJ5NrFdGvT8CZlM8X5NF-150" value="&lt;h1 style=&quot;margin-top: 0px;&quot;&gt;Note:&lt;/h1&gt;&lt;p&gt;&quot;Each form in the application has a corresponding class (e.g., &lt;code data-end=&quot;1409&quot; data-start=&quot;1393&quot;&gt;LoginFormClass&lt;/code&gt;, &lt;code data-end=&quot;1430&quot; data-start=&quot;1411&quot;&gt;MainFormClass, ProfileFormClass&lt;/code&gt;) that encapsulates its input data and logic. This pattern was followed throughout the project for better separation of concerns.&quot;&lt;/p&gt;" style="text;html=1;whiteSpace=wrap;overflow=hidden;rounded=0;" parent="1" vertex="1">
          <mxGeometry x="-97" y="1020" width="320" height="150" as="geometry" />
        </mxCell>
        <mxCell id="xOo3BjeBesByGFHDGWuI-1" value="" style="endArrow=none;html=1;rounded=0;" edge="1" parent="1">
          <mxGeometry width="50" height="50" relative="1" as="geometry">
            <mxPoint x="-137" y="340" as="sourcePoint" />
            <mxPoint x="-147" y="130" as="targetPoint" />
          </mxGeometry>
        </mxCell>
        <mxCell id="xOo3BjeBesByGFHDGWuI-2" value="" style="endArrow=none;html=1;rounded=0;" edge="1" parent="1">
          <mxGeometry width="50" height="50" relative="1" as="geometry">
            <mxPoint x="410" y="-200" as="sourcePoint" />
            <mxPoint x="620" y="-200" as="targetPoint" />
          </mxGeometry>
        </mxCell>
        <mxCell id="xOo3BjeBesByGFHDGWuI-3" value="" style="endArrow=none;html=1;rounded=0;" edge="1" parent="1">
          <mxGeometry width="50" height="50" relative="1" as="geometry">
            <mxPoint x="380" y="1260" as="sourcePoint" />
            <mxPoint x="590" y="1260" as="targetPoint" />
          </mxGeometry>
        </mxCell>
        <mxCell id="xOo3BjeBesByGFHDGWuI-4" value="" style="endArrow=none;html=1;rounded=0;" edge="1" parent="1">
          <mxGeometry width="50" height="50" relative="1" as="geometry">
            <mxPoint x="1095" y="569" as="sourcePoint" />
            <mxPoint x="1085" y="359" as="targetPoint" />
          </mxGeometry>
        </mxCell>
      </root>
    </mxGraphModel>
  </diagram>
</mxfile>
